<?xml version="1.0" encoding="utf-8"?>
<!-- Generator: Adobe Illustrator 19.2.1, SVG Export Plug-In . SVG Version: 6.00 Build 0)  -->
<svg version="1.1" id="Layer_1" xmlns="http://www.w3.org/2000/svg" xmlns:xlink="http://www.w3.org/1999/xlink" x="0px" y="0px"
	 viewBox="0 0 156 157" style="enable-background:new 0 0 156 157;" xml:space="preserve">
<style type="text/css">
	.st0{fill:#A58E3C;}
</style>
<g id="XMLID_20_">
	<circle id="XMLID_27_" class="st0" cx="78.1" cy="78.4" r="75.7"/>
	<g id="XMLID_21_">
		<g id="XMLID_22_">
			<path id="XMLID_23_" d="M43.4,107.9l0.2,0.9c2.3,9.4,10,15.4,19.6,15.4c14,0,20.9-8,24.1-14.8l0.8-1.6l0.8,1.6
				c4.1,8,8.7,13,18.6,13c2.8,0,4.1,0.6,5.1,1c0.7,0.3,1.2,0.5,1.9,0.5c0.4-0.6,0.5-3.7-0.3-5.2l-0.7-1.2l1.4-0.1
				c3.2-0.2,6.4-2.7,6.4-6.9c0-2.7-2.4-6.6-6.8-6.6h-1.1l0.2-1.1c0.5-2.2,0.5-4.9,0.2-5.7c-0.3,0.1-0.7,0.4-1.1,0.7
				c-3.4,2.9-7.4,3.5-10.2,3.5c-1.9,0-3.8-0.3-5.5-0.8c-1-0.4-2.4-1.1-2.6-2.3c-0.3-1.2,0.8-2.3,1.1-2.6c2.8-2.9,10.3-4.1,11.9-4
				c0.4,0,0.7,0,0.9,0c-0.4-0.9-1.9-2.7-3.1-3.3l-1-0.5l0.7-0.9c1.9-2.3,2.9-6.1-0.7-9.3c-1.1-1.3-2.6-1.9-4.3-1.9
				c-2.2,0-4.3,1.1-5.7,2.8l-0.8,1l-0.7-1c-1.2-1.8-2.6-2.9-3.2-2.9c0,0-0.1,0.3-0.1,1.4c0,4-0.8,10-3.2,13.6l-0.8,1.3l-9.6-18
				l1.3-0.2c6.8-0.9,15.9-4,19.1-9.8c6.3-11,8.4-13.6,11.8-15.6c0.4-0.3,0.7-0.5,0.8-0.6c-0.6-0.2-2-0.5-4.1-0.5
				c-1.5,0-2.9,0.1-3.6,0.4l-1.1,0.4l-0.1-1.1c-1-10-10.1-18.1-20.3-18.1c-10.5,0-18.9,7.2-20.7,17.9l-0.2,0.9L58,47.4
				c-0.5-0.1-1.1-0.1-1.7-0.1c-3.7,0-7,1.4-7.3,2c0,0.3,0,0.3,0.7,0.7c9.7,4.1,16.8,10.9,22.4,21.6l0.7,1.3h-1.5
				c-16.4,0-25.5,7.5-30.4,25.2c-1.3,4.5-3.1,6.5-5.3,8.5c-0.3,0.4-0.5,0.9-0.5,1.1c0.1,0.3,1.5,0.8,3.9,0.8c1.2,0,2.4-0.2,3.5-0.4
				L43.4,107.9z M67.1,99.3c-7.2,0-12.2-4.9-12.2-12c0-7.3,6.6-12.1,18.2-13l0.6,0l9.8,18.5l-0.5,0.5C79.4,96.4,75.1,99.3,67.1,99.3
				z M75.2,72.7l-0.3-0.6c-1.5-3-2.2-4.9-2.2-8.5c0-4.4,3.7-8,8.2-8c5.1,0,7,4.4,7,7.2c0,5.6-4.1,8.9-12.1,9.8L75.2,72.7z"/>
		</g>
	</g>
</g>
</svg>
