<?xml version="1.0" encoding="utf-8"?>
<!-- Generator: Adobe Illustrator 19.2.1, SVG Export Plug-In . SVG Version: 6.00 Build 0)  -->
<svg version="1.1" id="Layer_1" xmlns="http://www.w3.org/2000/svg" xmlns:xlink="http://www.w3.org/1999/xlink" x="0px" y="0px"
	 viewBox="0 0 156 157" style="enable-background:new 0 0 156 157;" xml:space="preserve">
<style type="text/css">
	.st0{fill:#A58E3C;}
</style>
<g id="XMLID_63_">
	<circle id="XMLID_75_" cx="78.2" cy="78.4" r="75.7"/>
	<g id="XMLID_64_">
		<path id="XMLID_74_" class="st0" d="M45.8,58.6c8.2,0,19.5-12.7,25.2-17.8c6.9-6,12.4-12.2,22-12.2h0.7c0.4,0,0.4-0.3,0.4-0.5
			c0-0.9-2.7-1.4-4.5-1.4c-7.5,0-12.8,2.9-19.6,8.3c-6.5,5.2-16.7,19-24.4,19.5c-3.2,0-2.4-3.2-3.6-3.2c-1.1,0.5-2,1.8-2,3.3
			C40.1,57.4,42.8,58.6,45.8,58.6z"/>
		<path id="XMLID_73_" class="st0" d="M47.9,42.3c4.3,0,7.3-1.5,13.2-7.3c3.2-3.2,6.8-4.2,6.8-4.9c0-0.6-0.2-1.8-2.9-1.8
			c-8.4,0-11.3,11.5-19,11.5c-2.2,0-3.6-1.5-4-1.5c-0.3,0-0.5,0-0.5,0.3C43,41.2,45.2,42.3,47.9,42.3z"/>
		<path id="XMLID_72_" class="st0" d="M107.7,115.6c-1.7,2.7-3.4,6.9-7.3,10.3c-1.7,1.8-3.1,3-3.1,3.3c0,0.4,0.5,0.5,1.2,0.5
			c1,0,2.6-0.4,4.4-1.1c2.3-1.1,5.2-4.3,7.9-9.4c2.8-5,3.6-6.7,8.8-9c0.4-0.1,0.6-0.7,0.6-0.8c0-0.2-0.1-0.4-0.6-0.4
			C113.1,109.1,110.3,111.7,107.7,115.6z"/>
		<path id="XMLID_71_" class="st0" d="M119.3,97.3c0-0.2-1.2-1.3-2-1.3c-12,0-19.2,12.5-24.4,17.6c-9,9.2-12.8,11.6-24,11.6
			c0,1.8,0.8,4,9.1,4c6,0,14.1-4.6,19.5-11.4C109.2,102.8,111.8,100.4,119.3,97.3z"/>
		<path id="XMLID_68_" class="st0" d="M110,83.9c1.3-4.4,1.7-13.3,1.7-18.4c0-3.9,1.4-4.2,2.2-6.3c-0.9-1.1-1.4-3-1.4-7
			c0-11.9-1.7-19.6-10-19.6c-16.3,0-20.2,10-20.2,30.5v4.8c0,3.1-2.3,5.2-2.3,5.2c0.9,1.1,3.1,2.6,3.1,5.3
			c0.1,9.7,0.3,19.3,10.7,19.3C100.3,97.8,108.6,90.3,110,83.9z M93.3,72.4c0-2.9,0.8-3.4,2.7-5.8c-1.1-1.4-2.7-1.9-2.7-4.4v-9.5
			c0-3.7,0.5-7.5,4.1-7.5c3.4,0,3.9,3.6,3.9,7.6v8.3c0,2.2-1.6,3.9-2.6,5.3c0.6,1.2,2.6,3,2.6,4.8v5.3c0,5.6-0.5,9.7-4.1,9.7
			c-3.6,0-3.9-4.9-3.9-7.7V72.4z"/>
		<path id="XMLID_65_" class="st0" d="M63.7,65.7c-4,0-5.9,0.6-11.1,1.5l-1.1-1.5c-0.8,0.1-1.7,0.1-2.2,0.1c-1.1,0-1.7-0.4-3-0.6
			c-1.1,1.1-1.1,2.8-5.8,3.4c2.8,5.5,3.8,7.4,3.8,29.1c0,8.3-1.4,16.7-3.1,22.7c5.2,1.1,5.8,2.6,7.8,3.5l1.6-0.8
			c3.8-2.4,4.2-2.7,10-4c13.8-3.5,15.7-12.6,16.3-23.3c0.2-2.2,1.9-4.2,3.3-6.1c-2-1.9-2.8-4.2-3-5.6C76.3,73.7,75.4,65.7,63.7,65.7
			z M66,88.8c0,5.3-1.9,20.9-7.8,20.9c-2.8-0.2-3.3-5.4-3.3-12.7c0-2.5,0.1-7.2,0.1-9.8c0.3-5.7-0.6-12.7,4.9-12.7
			c5.5,1.1,6.1,5.3,6.1,10V88.8z"/>
	</g>
</g>
</svg>
