<?xml version="1.0" encoding="utf-8"?>
<!-- Generator: Adobe Illustrator 19.2.1, SVG Export Plug-In . SVG Version: 6.00 Build 0)  -->
<svg version="1.1" id="Layer_1" xmlns="http://www.w3.org/2000/svg" xmlns:xlink="http://www.w3.org/1999/xlink" x="0px" y="0px"
	 viewBox="0 0 156 157" style="enable-background:new 0 0 156 157;" xml:space="preserve">
<style type="text/css">
	.st0{fill:#A58E3C;}
</style>
<g id="XMLID_28_">
	<circle id="XMLID_32_" class="st0" cx="78.7" cy="78.4" r="75.7"/>
	<g id="XMLID_29_">
		<path id="XMLID_30_" d="M73.8,91.6c8.3-3.2,19.4-10.2,19.4-21.4c0-3.2-0.9-4.6-3-4.6c-6.5,0-15,13.5-19.6,32.1
			c-2.1,8.4-5.5,23.6-1.3,25.7l-0.4,0.4c-3.9,0.6-7.3,1-10.2,1c-9.5,0-13.8-4.1-11.3-19.1l11.4-69.8c0.4-2.4-1.6-4.3-5-3.2l-0.4-0.4
			c4.3-2.1,12.8-4.7,18.6-4.7c6.9,0,9.6,2.6,8,10.8L68.7,97.3l0.5,0.1c8.4-32,20.8-38.5,31.4-38.5c9.7,0,14.5,5.5,14.5,11.6
			c0,14.7-27.9,18-40.3,20.9c20.1-2.4,26.6,2.1,29.1,10c4.9,15.3,8.9,19.8,14.1,21.9l-0.4,0.4c-4.5,0.9-9.5,1.7-14.2,1.7
			c-10,0-19.4-3.5-22.9-17.5c-2.4-9.6-3-15.8-6.6-16.1L73.8,91.6z"/>
	</g>
</g>
</svg>
